<mxfile host="Electron" modified="2024-05-27T08:36:39.566Z" agent="Mozilla/5.0 (Windows NT 10.0; Win64; x64) AppleWebKit/537.36 (KHTML, like Gecko) draw.io/24.0.4 Chrome/120.0.6099.109 Electron/28.1.0 Safari/537.36" etag="-4veyzU-fnPOG46xtCPj" version="24.0.4" type="device">
  <diagram name="1 oldal" id="anxkqq9LLscd38p4YCPu">
    <mxGraphModel dx="1434" dy="884" grid="1" gridSize="10" guides="1" tooltips="1" connect="1" arrows="1" fold="1" page="1" pageScale="1" pageWidth="1600" pageHeight="900" math="0" shadow="0">
      <root>
        <mxCell id="0" />
        <mxCell id="1" parent="0" />
        <mxCell id="oI3wsLySmZLWZRdsP4ce-13" value="" style="group" vertex="1" connectable="0" parent="1">
          <mxGeometry x="140" y="100" width="430" height="180" as="geometry" />
        </mxCell>
        <mxCell id="oI3wsLySmZLWZRdsP4ce-6" value="&lt;div&gt;&lt;p style=&quot;margin: 0px 0px 0px 8px;&quot;&gt;&lt;font face=&quot;Garamond&quot;&gt;&lt;font style=&quot;font-size: 14px;&quot;&gt;«&lt;/font&gt;&lt;font style=&quot;font-size: 13px;&quot;&gt;Device&lt;/font&gt;&lt;font style=&quot;font-size: 14px;&quot;&gt;»&lt;/font&gt;&lt;/font&gt;&lt;/p&gt;&lt;p style=&quot;margin: 0px 0px 0px 8px;&quot;&gt;&lt;font face=&quot;Garamond&quot;&gt;Server&lt;/font&gt;&lt;/p&gt;&lt;p style=&quot;margin: 0px 0px 0px 8px;&quot;&gt;&lt;font face=&quot;Garamond&quot;&gt;&lt;br&gt;&lt;/font&gt;&lt;/p&gt;&lt;p style=&quot;margin: 0px 0px 0px 8px;&quot;&gt;&lt;font face=&quot;Garamond&quot;&gt;&lt;br&gt;&lt;/font&gt;&lt;/p&gt;&lt;p style=&quot;margin: 0px 0px 0px 8px;&quot;&gt;&lt;font face=&quot;Garamond&quot;&gt;&lt;br&gt;&lt;/font&gt;&lt;/p&gt;&lt;p style=&quot;margin: 0px 0px 0px 8px;&quot;&gt;&lt;font face=&quot;Garamond&quot;&gt;&lt;br&gt;&lt;/font&gt;&lt;/p&gt;&lt;p style=&quot;margin: 0px 0px 0px 8px;&quot;&gt;&lt;font face=&quot;Garamond&quot;&gt;&lt;br&gt;&lt;/font&gt;&lt;/p&gt;&lt;p style=&quot;margin: 0px 0px 0px 8px;&quot;&gt;&lt;font face=&quot;Garamond&quot;&gt;&lt;br&gt;&lt;/font&gt;&lt;/p&gt;&lt;p style=&quot;margin: 0px 0px 0px 8px;&quot;&gt;&lt;font face=&quot;Garamond&quot;&gt;&lt;br&gt;&lt;/font&gt;&lt;/p&gt;&lt;p style=&quot;margin: 0px 0px 0px 8px;&quot;&gt;&lt;font face=&quot;Garamond&quot;&gt;&lt;br&gt;&lt;/font&gt;&lt;/p&gt;&lt;p style=&quot;margin: 0px 0px 0px 8px;&quot;&gt;&lt;font face=&quot;Garamond&quot;&gt;&lt;br&gt;&lt;/font&gt;&lt;/p&gt;&lt;/div&gt;" style="shape=cube;whiteSpace=wrap;html=1;boundedLbl=1;backgroundOutline=1;darkOpacity=0.05;darkOpacity2=0.1;size=10;container=0;" vertex="1" parent="oI3wsLySmZLWZRdsP4ce-13">
          <mxGeometry width="430" height="180" as="geometry" />
        </mxCell>
        <mxCell id="oI3wsLySmZLWZRdsP4ce-3" value="&lt;div&gt;&lt;p style=&quot;margin: 0px 0px 0px 8px;&quot;&gt;&lt;font face=&quot;Garamond&quot;&gt;&lt;font style=&quot;font-size: 14px;&quot;&gt;«&lt;/font&gt;&lt;font style=&quot;font-size: 13px;&quot;&gt;Execution Environment&lt;/font&gt;&lt;font style=&quot;font-size: 14px;&quot;&gt;»&lt;/font&gt;&lt;/font&gt;&lt;/p&gt;&lt;p style=&quot;margin: 0px 0px 0px 8px;&quot;&gt;&lt;font face=&quot;Garamond&quot;&gt;CLR&lt;/font&gt;&lt;/p&gt;&lt;p style=&quot;margin: 0px 0px 0px 8px;&quot;&gt;&lt;font face=&quot;Garamond&quot;&gt;&lt;br&gt;&lt;/font&gt;&lt;/p&gt;&lt;p style=&quot;margin: 0px 0px 0px 8px;&quot;&gt;&lt;font face=&quot;Garamond&quot;&gt;&lt;br&gt;&lt;/font&gt;&lt;/p&gt;&lt;p style=&quot;margin: 0px 0px 0px 8px;&quot;&gt;&lt;font face=&quot;Garamond&quot;&gt;&lt;br&gt;&lt;/font&gt;&lt;/p&gt;&lt;p style=&quot;margin: 0px 0px 0px 8px;&quot;&gt;&lt;font face=&quot;Garamond&quot;&gt;&lt;br&gt;&lt;/font&gt;&lt;/p&gt;&lt;p style=&quot;margin: 0px 0px 0px 8px;&quot;&gt;&lt;font face=&quot;Garamond&quot;&gt;&lt;br&gt;&lt;/font&gt;&lt;/p&gt;&lt;/div&gt;" style="shape=cube;whiteSpace=wrap;html=1;boundedLbl=1;backgroundOutline=1;darkOpacity=0.05;darkOpacity2=0.1;size=10;container=0;" vertex="1" parent="oI3wsLySmZLWZRdsP4ce-13">
          <mxGeometry x="230" y="50" width="190" height="120" as="geometry" />
        </mxCell>
        <mxCell id="t8OtjUGjccsQRjoJCPrV-1" value="&lt;p style=&quot;margin:0px;margin-top:6px;text-align:center;&quot;&gt;&lt;font face=&quot;Garamond&quot;&gt;&lt;br&gt;&lt;/font&gt;&lt;/p&gt;&lt;p style=&quot;margin: 0px 0px 0px 8px;&quot;&gt;&lt;font face=&quot;Garamond&quot;&gt;&lt;font style=&quot;font-size: 14px;&quot;&gt;«&lt;/font&gt;&lt;span style=&quot;font-size: 13px;&quot;&gt;MSSQL Database&lt;/span&gt;&lt;font style=&quot;font-size: 14px;&quot;&gt;»&lt;/font&gt;&lt;/font&gt;&lt;/p&gt;&lt;p style=&quot;margin: 0px 0px 0px 8px;&quot;&gt;&lt;font face=&quot;Garamond&quot; style=&quot;font-size: 12px;&quot;&gt;TrashTracker.Data&lt;/font&gt;&lt;/p&gt;" style="align=center;overflow=fill;html=1;dropTarget=0;whiteSpace=wrap;container=0;" parent="oI3wsLySmZLWZRdsP4ce-13" vertex="1">
          <mxGeometry x="250" y="100" width="160" height="60" as="geometry" />
        </mxCell>
        <mxCell id="t8OtjUGjccsQRjoJCPrV-2" value="" style="shape=component;jettyWidth=8;jettyHeight=4;container=0;" parent="oI3wsLySmZLWZRdsP4ce-13" vertex="1">
          <mxGeometry x="386" y="104" width="20" height="20" as="geometry">
            <mxPoint x="-24" y="4" as="offset" />
          </mxGeometry>
        </mxCell>
        <mxCell id="oI3wsLySmZLWZRdsP4ce-11" value="" style="group" vertex="1" connectable="0" parent="oI3wsLySmZLWZRdsP4ce-13">
          <mxGeometry x="20" y="110" width="190" height="40" as="geometry" />
        </mxCell>
        <mxCell id="oI3wsLySmZLWZRdsP4ce-8" value="&lt;font face=&quot;Courier New&quot;&gt;appsettings.json&lt;/font&gt;" style="html=1;dropTarget=0;whiteSpace=wrap;" vertex="1" parent="oI3wsLySmZLWZRdsP4ce-11">
          <mxGeometry width="190" height="40" as="geometry" />
        </mxCell>
        <mxCell id="oI3wsLySmZLWZRdsP4ce-10" value="" style="shape=note;whiteSpace=wrap;html=1;backgroundOutline=1;darkOpacity=0.05;size=6;" vertex="1" parent="oI3wsLySmZLWZRdsP4ce-11">
          <mxGeometry x="160" y="10" width="20" height="20" as="geometry" />
        </mxCell>
        <mxCell id="oI3wsLySmZLWZRdsP4ce-12" style="edgeStyle=orthogonalEdgeStyle;rounded=0;orthogonalLoop=1;jettySize=auto;html=1;exitX=1;exitY=0.5;exitDx=0;exitDy=0;entryX=0;entryY=0.5;entryDx=0;entryDy=0;endArrow=none;endFill=0;startArrow=classic;startFill=1;" edge="1" parent="oI3wsLySmZLWZRdsP4ce-13" source="oI3wsLySmZLWZRdsP4ce-8" target="t8OtjUGjccsQRjoJCPrV-1">
          <mxGeometry relative="1" as="geometry" />
        </mxCell>
        <mxCell id="oI3wsLySmZLWZRdsP4ce-15" value="" style="group" vertex="1" connectable="0" parent="1">
          <mxGeometry x="640" y="100" width="300" height="180" as="geometry" />
        </mxCell>
        <mxCell id="oI3wsLySmZLWZRdsP4ce-14" value="&lt;p style=&quot;margin: 0px 0px 0px 8px;&quot;&gt;&lt;font face=&quot;Garamond&quot;&gt;&lt;font style=&quot;font-size: 14px;&quot;&gt;«&lt;/font&gt;&lt;font style=&quot;font-size: 13px;&quot;&gt;Device&lt;/font&gt;&lt;font style=&quot;font-size: 14px;&quot;&gt;»&lt;/font&gt;&lt;/font&gt;&lt;/p&gt;&lt;p style=&quot;margin: 0px 0px 0px 8px;&quot;&gt;&lt;font face=&quot;Garamond&quot;&gt;Database Server&lt;/font&gt;&lt;/p&gt;&lt;p style=&quot;margin: 0px 0px 0px 8px;&quot;&gt;&lt;font face=&quot;Garamond&quot;&gt;&lt;br&gt;&lt;/font&gt;&lt;/p&gt;&lt;p style=&quot;margin: 0px 0px 0px 8px;&quot;&gt;&lt;font face=&quot;Garamond&quot;&gt;&lt;br&gt;&lt;/font&gt;&lt;/p&gt;&lt;p style=&quot;margin: 0px 0px 0px 8px;&quot;&gt;&lt;font face=&quot;Garamond&quot;&gt;&lt;br&gt;&lt;/font&gt;&lt;/p&gt;&lt;p style=&quot;margin: 0px 0px 0px 8px;&quot;&gt;&lt;font face=&quot;Garamond&quot;&gt;&lt;br&gt;&lt;/font&gt;&lt;/p&gt;&lt;p style=&quot;margin: 0px 0px 0px 8px;&quot;&gt;&lt;font face=&quot;Garamond&quot;&gt;&lt;br&gt;&lt;/font&gt;&lt;/p&gt;&lt;p style=&quot;margin: 0px 0px 0px 8px;&quot;&gt;&lt;font face=&quot;Garamond&quot;&gt;&lt;br&gt;&lt;/font&gt;&lt;/p&gt;&lt;p style=&quot;margin: 0px 0px 0px 8px;&quot;&gt;&lt;font face=&quot;Garamond&quot;&gt;&lt;br&gt;&lt;/font&gt;&lt;/p&gt;&lt;p style=&quot;margin: 0px 0px 0px 8px;&quot;&gt;&lt;font face=&quot;Garamond&quot;&gt;&lt;br&gt;&lt;/font&gt;&lt;/p&gt;&lt;p style=&quot;margin: 0px 0px 0px 8px;&quot;&gt;&lt;font face=&quot;Garamond&quot;&gt;&lt;br&gt;&lt;/font&gt;&lt;/p&gt;" style="shape=cube;whiteSpace=wrap;html=1;boundedLbl=1;backgroundOutline=1;darkOpacity=0.05;darkOpacity2=0.1;size=10;" vertex="1" parent="oI3wsLySmZLWZRdsP4ce-15">
          <mxGeometry width="300" height="180" as="geometry" />
        </mxCell>
        <mxCell id="oI3wsLySmZLWZRdsP4ce-5" value="&lt;p style=&quot;margin: 0px 0px 0px 8px;&quot;&gt;&lt;font face=&quot;Garamond&quot;&gt;&lt;font style=&quot;font-size: 14px;&quot;&gt;«&lt;/font&gt;&lt;font style=&quot;font-size: 13px;&quot;&gt;Database Execution Environment&lt;/font&gt;&lt;font style=&quot;font-size: 14px;&quot;&gt;»&lt;/font&gt;&lt;/font&gt;&lt;/p&gt;&lt;p style=&quot;margin: 0px 0px 0px 8px;&quot;&gt;&lt;font face=&quot;Garamond&quot;&gt;SQL Server&lt;/font&gt;&lt;/p&gt;&lt;p style=&quot;margin: 0px 0px 0px 8px;&quot;&gt;&lt;font face=&quot;Garamond&quot;&gt;&lt;br&gt;&lt;/font&gt;&lt;/p&gt;&lt;p style=&quot;margin: 0px 0px 0px 8px;&quot;&gt;&lt;font face=&quot;Garamond&quot;&gt;&lt;br&gt;&lt;/font&gt;&lt;/p&gt;&lt;p style=&quot;margin: 0px 0px 0px 8px;&quot;&gt;&lt;font face=&quot;Garamond&quot;&gt;&lt;br&gt;&lt;/font&gt;&lt;/p&gt;&lt;p style=&quot;margin: 0px 0px 0px 8px;&quot;&gt;&lt;font face=&quot;Garamond&quot;&gt;&lt;br&gt;&lt;/font&gt;&lt;/p&gt;&lt;p style=&quot;margin: 0px 0px 0px 8px;&quot;&gt;&lt;br&gt;&lt;/p&gt;" style="shape=cube;whiteSpace=wrap;html=1;boundedLbl=1;backgroundOutline=1;darkOpacity=0.05;darkOpacity2=0.1;size=10;" vertex="1" parent="oI3wsLySmZLWZRdsP4ce-15">
          <mxGeometry x="20" y="50" width="270" height="120" as="geometry" />
        </mxCell>
        <mxCell id="t8OtjUGjccsQRjoJCPrV-5" value="&lt;p style=&quot;margin:0px;margin-top:6px;text-align:center;&quot;&gt;&lt;font face=&quot;Garamond&quot;&gt;&lt;br&gt;&lt;/font&gt;&lt;/p&gt;&lt;p style=&quot;margin: 0px 0px 0px 8px;&quot;&gt;&lt;font face=&quot;Garamond&quot;&gt;&lt;font style=&quot;font-size: 14px;&quot;&gt;«&lt;/font&gt;&lt;font style=&quot;font-size: 13px;&quot;&gt;ASP.NET Core Web Application&lt;/font&gt;&lt;font style=&quot;font-size: 14px;&quot;&gt;»&lt;/font&gt;&lt;/font&gt;&lt;/p&gt;&lt;p style=&quot;margin: 0px 0px 0px 8px;&quot;&gt;&lt;font face=&quot;Garamond&quot; style=&quot;font-size: 12px;&quot;&gt;TrashTracker.Web&lt;/font&gt;&lt;/p&gt;" style="align=center;overflow=fill;html=1;dropTarget=0;whiteSpace=wrap;" parent="oI3wsLySmZLWZRdsP4ce-15" vertex="1">
          <mxGeometry x="40" y="100" width="240" height="60" as="geometry" />
        </mxCell>
        <mxCell id="t8OtjUGjccsQRjoJCPrV-6" value="" style="shape=component;jettyWidth=8;jettyHeight=4;" parent="t8OtjUGjccsQRjoJCPrV-5" vertex="1">
          <mxGeometry x="1" width="20" height="20" relative="1" as="geometry">
            <mxPoint x="-24" y="4" as="offset" />
          </mxGeometry>
        </mxCell>
        <mxCell id="oI3wsLySmZLWZRdsP4ce-1" style="edgeStyle=orthogonalEdgeStyle;rounded=0;orthogonalLoop=1;jettySize=auto;html=1;exitX=1;exitY=0.5;exitDx=0;exitDy=0;entryX=0;entryY=0.5;entryDx=0;entryDy=0;" edge="1" parent="1" source="t8OtjUGjccsQRjoJCPrV-1" target="t8OtjUGjccsQRjoJCPrV-5">
          <mxGeometry relative="1" as="geometry" />
        </mxCell>
      </root>
    </mxGraphModel>
  </diagram>
</mxfile>
